<svg xmlns="http://www.w3.org/2000/svg" xmlns:xlink="http://www.w3.org/1999/xlink" width="39.969" height="39.968" viewBox="0 0 39.969 39.968"><defs><clipPath id="a"><rect width="39.969" height="39.968" transform="translate(0 0)" fill="none"/></clipPath></defs><g transform="translate(0 0)" clip-path="url(#a)"><path d="M16.263,10.9c.212-.042.351-.041.4.012a.136.136,0,0,1,0,.162.886.886,0,0,1-.089.123,27.04,27.04,0,0,0-3.551,6.194c-.029.062-.058.124-.082.165a.2.2,0,0,1-.17.123.36.36,0,0,1-.211-.07,3.363,3.363,0,0,1-1.9-2.667c0-1.808,2.306-3.364,5.6-4.042M18.1,12.259a2.9,2.9,0,0,1,1.13-1.578,1.657,1.657,0,0,1,.678-.156c.05,0,.086,0,.1,0a17.451,17.451,0,0,1,5.08.711l.056.02c.135.046.2.108.2.186a.234.234,0,0,1-.084.166c-.021.02-.051.047-.093.082a11.79,11.79,0,0,1-3.264,1.764,15.933,15.933,0,0,1-2.389.768c-.516.11-2.429.4-1.418-1.963m8.922.067A.205.205,0,0,1,27.2,12.2a.348.348,0,0,1,.211.069,3.358,3.358,0,0,1,1.9,2.666c0,1.81-2.305,3.365-5.6,4.044-.211.042-.351.041-.4-.013a.131.131,0,0,1,0-.162.77.77,0,0,1,.089-.123,27.042,27.042,0,0,0,3.551-6.193c.03-.063.058-.125.081-.166M21.9,17.613a2.89,2.89,0,0,1-1.13,1.579,1.67,1.67,0,0,1-.678.157c-.05,0-.086,0-.1,0a17.507,17.507,0,0,1-5.079-.711c-.013,0-.046-.017-.056-.021-.135-.045-.2-.108-.2-.185a.231.231,0,0,1,.083-.167c.021-.021.051-.047.092-.082a11.87,11.87,0,0,1,3.266-1.765,15.877,15.877,0,0,1,2.39-.767c.514-.11,2.427-.4,1.416,1.962m-1.91,2.574c5.608,0,10.153-2.349,10.153-5.246S25.594,9.7,19.986,9.7,9.832,12.044,9.832,14.941s4.546,5.246,10.154,5.246" fill="#231f20"/><path d="M28.287,28.068a39.24,39.24,0,0,1-8.54-1.273,37.067,37.067,0,0,0-8.064-1.22,13.432,13.432,0,0,0-5.633,1.151l-1.527.688V3.445l.638-.287a15.552,15.552,0,0,1,6.521-1.342,39.239,39.239,0,0,1,8.539,1.273,37.06,37.06,0,0,0,8.064,1.22,13.436,13.436,0,0,0,5.633-1.151l1.527-.688V26.439l-.638.287A15.55,15.55,0,0,1,28.287,28.068Zm-16.6-4.659a39.24,39.24,0,0,1,8.54,1.273,37.067,37.067,0,0,0,8.064,1.22,13.634,13.634,0,0,0,4.995-.884V5.722a16.024,16.024,0,0,1-5,.752A39.235,39.235,0,0,1,19.746,5.2a37.066,37.066,0,0,0-8.063-1.22,13.635,13.635,0,0,0-4.994.884v19.3A16.025,16.025,0,0,1,11.683,23.41Z" fill="#231f20"/><path d="M1.082,21.594H-1.082V0H1.082Z" transform="translate(5.606 16.558)" fill="#231f20"/></g></svg>