<svg width="36" height="36" viewBox="0 0 36 36" fill="none" xmlns="http://www.w3.org/2000/svg">
<path d="M17.0634 34.8034C16.1397 34.8034 15.2159 34.7923 14.2924 34.8061C13.0554 34.8245 11.8954 34.5277 10.7892 33.9943C9.45165 33.3493 8.11082 32.7107 6.78116 32.0497C5.62789 31.4764 4.40417 31.2328 3.12939 31.211C2.33075 31.1973 1.53167 31.2113 0.732827 31.2068C0.267217 31.2041 0.00720748 30.978 0.00372748 30.5894C0.000227477 30.198 0.260497 29.9518 0.719467 29.9611C1.97853 29.9865 3.23985 29.8811 4.49686 30.0297C5.51262 30.1497 6.46417 30.4742 7.37999 30.917C8.78422 31.596 10.1868 32.2784 11.5936 32.9521C12.4883 33.3806 13.4474 33.5404 14.428 33.548C16.3127 33.5628 18.1977 33.5512 20.0825 33.554C20.2854 33.5544 20.4753 33.5249 20.6647 33.4462C22.2086 32.8046 23.7522 32.1618 25.3029 31.5369C25.5784 31.4258 25.6537 31.2658 25.6255 30.9938C25.5658 30.4185 25.1508 30.0476 24.5016 30.0017C23.7515 29.9488 23.0414 30.1457 22.3332 30.3477C21.9616 30.4537 21.5988 30.5911 21.227 30.6965C20.8663 30.7988 20.5379 30.6169 20.4241 30.2753C20.324 29.975 20.4616 29.64 20.7995 29.5157C21.9605 29.0888 23.136 28.692 24.392 28.6999C25.746 28.7085 26.6874 29.5206 26.8992 30.8102C27.0446 31.6959 26.6912 32.3466 25.8599 32.6917C24.2582 33.3567 22.653 34.0133 21.0507 34.6766C20.8392 34.7642 20.6256 34.8064 20.3962 34.8054C19.2853 34.8008 18.1743 34.8034 17.0634 34.8034Z" fill="#231F20"/>
<path d="M18.9213 1.19654C19.8575 1.19663 20.7938 1.20681 21.7298 1.19409C22.9402 1.17764 24.0793 1.46109 25.1634 1.98028C26.5139 2.62701 27.8657 3.27165 29.2052 3.94054C30.3578 4.51605 31.5801 4.76405 32.8546 4.78858C33.6531 4.80395 34.4523 4.78904 35.2511 4.79279C35.7416 4.79509 36.0062 5.02428 35.9999 5.42823C35.9939 5.81381 35.731 6.04866 35.2658 6.03927C34.0192 6.01411 32.7705 6.1161 31.5258 5.9723C30.5096 5.85491 29.5569 5.53366 28.641 5.09094C27.2479 4.41755 25.8568 3.74003 24.4627 3.06879C23.5574 2.63291 22.589 2.45971 21.595 2.45195C19.6978 2.43713 17.8004 2.44897 15.9031 2.4456C15.6992 2.44524 15.5109 2.48274 15.3225 2.56097C13.79 3.19731 12.2582 3.83556 10.719 4.45559C10.4334 4.57065 10.3434 4.73299 10.3785 5.02332C10.4461 5.58219 10.852 5.94861 11.4811 5.99664C12.244 6.05487 12.966 5.85349 13.6859 5.64631C14.0453 5.54285 14.3969 5.41201 14.7563 5.30819C15.1257 5.20149 15.4458 5.36513 15.5709 5.70567C15.6803 6.00343 15.5526 6.35235 15.2208 6.47533C14.0376 6.91389 12.8391 7.32387 11.5559 7.29819C10.238 7.27182 9.32408 6.46899 9.10782 5.20813C8.95211 4.30029 9.31125 3.6573 10.1627 3.30619C11.7314 2.65927 13.2998 2.01156 14.8658 1.35813C15.136 1.24539 15.4073 1.19092 15.7009 1.19318C16.7744 1.20145 17.8479 1.19645 18.9213 1.19654Z" fill="#231F20"/>
<path d="M33.0361 13.2298C31.6611 13.1322 30.2965 13.4263 28.9077 13.676C26.5017 14.1085 24.134 13.1833 22.881 11.0579C22.7852 10.8954 22.6535 10.8055 22.4869 10.7367C21.4723 10.3173 20.4573 9.89901 19.4473 9.46878C18.5756 9.09745 17.7742 8.61874 17.2161 7.82481C16.4519 6.73776 16.4784 5.58278 16.9841 4.41043C17.1457 4.03578 17.4883 3.95358 17.9446 4.14118C19.2829 4.69144 20.6184 5.24878 21.955 5.80348C22.7845 6.14777 23.6142 6.49186 24.4433 6.83728C24.5353 6.8756 24.6281 6.91501 24.7132 6.96599C25.0093 7.14321 25.1235 7.43756 25.009 7.73042C24.8807 8.05842 24.6274 8.184 24.2922 8.12703C24.1349 8.10028 23.9822 8.03433 23.833 7.97261C21.9885 7.20969 20.142 6.45153 18.3043 5.67282C17.9732 5.53254 17.9356 5.63878 17.9288 5.93422C17.9083 6.82875 18.4003 7.4067 19.0969 7.84948C19.8811 8.348 20.774 8.61545 21.6181 8.98644C22.189 9.23733 22.7689 9.4681 23.3481 9.69937C23.5932 9.79724 23.7606 9.957 23.8805 10.1935C24.6011 11.6147 25.8044 12.3045 27.3541 12.4403C28.2981 12.523 29.2229 12.42 30.1109 12.0668C30.2755 12.0013 30.4468 11.9807 30.6239 11.9809C32.1715 11.983 33.719 11.9821 35.2666 11.9823C35.3165 11.9823 35.3667 11.9814 35.4162 11.9861C35.7657 12.0192 35.9949 12.2596 35.9999 12.5963C36.005 12.9473 35.7674 13.219 35.4002 13.2256C34.6267 13.2394 33.8528 13.2298 33.0361 13.2298Z" fill="#231F20"/>
<path d="M2.91702 22.7672C3.02935 22.7671 3.14265 22.7575 3.25388 22.7686C4.57921 22.9005 5.83634 22.5235 7.12316 22.3082C9.45852 21.9174 11.848 22.783 13.1169 24.9322C13.2203 25.1074 13.3633 25.2002 13.541 25.2736C14.5557 25.6927 15.5709 26.1111 16.5811 26.5408C17.442 26.9069 18.2283 27.3852 18.7811 28.166C19.5494 29.2512 19.5239 30.4062 19.0248 31.5806C18.8639 31.9594 18.5204 32.0485 18.0686 31.8631C16.8567 31.3656 15.6483 30.8598 14.4386 30.357C13.4594 29.95 12.4806 29.5417 11.5008 29.1359C11.3012 29.0532 11.1152 28.9586 11.0165 28.7497C10.9027 28.5087 10.9363 28.2821 11.1029 28.0854C11.3163 27.8332 11.5957 27.8032 11.8867 27.9199C12.5814 28.1984 13.2726 28.4859 13.964 28.7727C15.197 29.2844 16.4289 29.7988 17.6618 30.3108C18.053 30.4733 18.0636 30.461 18.0715 30.0311C18.088 29.1357 17.5746 28.5685 16.8768 28.1326C16.0999 27.6472 15.2219 27.3771 14.3876 27.0141C13.8157 26.7653 13.2373 26.5309 12.6576 26.3004C12.4118 26.2026 12.2438 26.0447 12.1242 25.808C11.4051 24.3856 10.2012 23.7057 8.65273 23.5536C7.70398 23.4605 6.78969 23.595 5.89885 23.9264C5.76122 23.9777 5.6084 24.0126 5.46245 24.0131C3.86483 24.0192 2.26718 24.0168 0.669537 24.0172C0.325547 24.0173 0.0876869 23.8615 0.0169269 23.5218C-0.0491731 23.2044 0.0798269 22.9603 0.377477 22.8165C0.506337 22.7542 0.646117 22.7681 0.782667 22.7679C1.49411 22.7666 2.20557 22.7673 2.91702 22.7672Z" fill="#231F20"/>
<path d="M28.6723 19.4249C28.6759 18.9173 28.5443 18.4609 28.27 18.0295C28.2125 17.9388 28.1534 17.8489 28.0945 17.7591C27.7733 17.2693 27.47 16.8066 27.3834 16.2338L27.3691 16.1409C27.3623 16.0982 27.3552 16.0525 27.3502 16.0147C27.4015 16.0126 27.4702 16.0125 27.5375 16.0123H27.5722C27.5928 16.0123 27.6134 16.0123 27.634 16.0122C28.008 16.0065 28.2348 15.8084 28.2409 15.4822C28.2468 15.1571 28.0248 14.9403 27.6619 14.9166C27.5033 14.9061 27.3155 14.8977 27.1253 14.9154C27.112 14.9167 27.1013 14.917 27.0931 14.917C27.0785 14.9169 27.0705 14.9166 27.0705 14.9166C27.0668 14.9114 27.0538 14.8903 27.0389 14.8288C26.8809 14.1727 26.7131 13.4907 26.5404 12.8018L26.5055 12.6628L25.332 12.4984L25.4051 12.8022C25.6231 13.7073 25.8534 14.6249 26.0762 15.5123C26.2098 16.0443 26.3433 16.5763 26.4751 17.1086C26.5188 17.2855 26.5879 17.445 26.6862 17.5964C26.77 17.7257 26.8523 17.8561 26.9351 17.9862C26.8444 17.9436 26.7433 17.9289 26.6428 17.9456L24.0993 18.3722C23.9266 18.4013 23.7836 18.5166 23.7165 18.6807C23.6505 18.8426 23.67 19.0252 23.7688 19.1691L24.3881 20.0694C24.4776 20.1998 24.6244 20.2813 24.7806 20.2875L26.8393 20.3706L26.8564 20.3709C27.1274 20.3709 27.3483 20.1552 27.3589 19.8795C27.3695 19.5984 27.1528 19.3604 26.876 19.3492L25.0702 19.2764L25.051 19.2485L26.8069 18.9541C27.0552 18.9124 27.2295 18.6906 27.2258 18.4421C27.2781 18.5245 27.3302 18.6069 27.3827 18.6891C27.5077 18.8854 27.5683 19.0933 27.5677 19.3248C27.5649 20.5845 27.5632 21.933 27.5702 23.2583C27.5703 23.2682 27.5701 23.2765 27.5697 23.2837C27.561 23.284 27.55 23.2844 27.537 23.2843C26.8077 23.2813 26.0448 23.2799 25.1603 23.281L25.7164 22.3482C25.8222 22.171 25.8233 21.95 25.7192 21.7715L25.1571 20.8092C25.056 20.6358 24.8683 20.528 24.6673 20.528H12.3946C12.1936 20.528 12.0059 20.6358 11.9047 20.8091L11.3427 21.7716C11.2385 21.95 11.2396 22.171 11.3453 22.3481L11.9018 23.2815L11.8443 23.2813C11.5775 23.2807 11.3109 23.2799 11.0439 23.2803L10.5727 23.2809L11.5472 24.3833L19.2064 24.3832L27.0685 24.3833V25.388C27.0685 25.7029 26.8124 25.959 26.4976 25.959H25.4584C25.1436 25.959 24.8875 25.7029 24.8875 25.388V25.1563C24.8875 24.8436 24.6331 24.5891 24.3203 24.5891C24.0075 24.5891 23.7531 24.8436 23.7531 25.1563V25.388C23.7531 26.3284 24.5181 27.0934 25.4584 27.0934H26.4976C27.438 27.0934 28.203 26.3284 28.203 25.388V24.369C28.603 24.2211 28.6686 24.1231 28.6686 23.6858C28.6687 23.2764 28.6682 22.8669 28.6676 22.4575C28.6664 21.4634 28.6652 20.4355 28.6723 19.4249ZM22.1445 23.2805C21.2248 23.2813 20.305 23.2812 19.3859 23.2812L18.0121 23.2811C16.9885 23.2813 15.9652 23.2814 14.9411 23.281L13.7314 23.2845C13.614 23.284 13.4967 23.2839 13.3792 23.2839L13.224 23.2838L12.4912 22.0547L12.7203 21.6625H24.3416L24.5707 22.0547L23.8381 23.2834L23.6931 23.2837C23.5663 23.2839 23.4396 23.284 23.3144 23.2845L22.1445 23.2805Z" fill="#231F20"/>
<path d="M11.8698 16.1178C11.5905 16.1697 11.4044 16.3882 11.407 16.6615C11.4094 16.9271 11.59 17.1402 11.8564 17.1917C11.9699 17.2135 12.0828 17.2165 12.1781 17.2165C13.944 17.2175 15.7097 17.2173 17.4755 17.2174L24.9154 17.2175C24.9235 17.2176 24.9316 17.2176 24.9398 17.2176C25.0407 17.2176 25.1533 17.215 25.2701 17.1793C25.5127 17.1054 25.6565 16.9085 25.6549 16.6528C25.6533 16.3923 25.4999 16.1922 25.2545 16.131C25.1631 16.1081 25.063 16.0974 24.9397 16.0973C20.6667 16.0961 16.3934 16.0961 12.12 16.097C12.0263 16.097 11.9444 16.1038 11.8698 16.1178Z" fill="#231F20"/>
<path d="M12.6737 20.0696L13.293 19.1691C13.3919 19.0253 13.4115 18.8427 13.3454 18.6806C13.2784 18.5166 13.1353 18.4013 12.9626 18.3722L10.4187 17.9455C10.3049 17.9271 10.1918 17.9497 10.0927 18.0059C10.1381 17.9367 10.1831 17.867 10.2303 17.8004C10.466 17.4678 10.5744 17.1054 10.6426 16.8268C10.7887 16.23 10.9378 15.6339 11.087 15.0379C11.3224 14.0975 11.5657 13.1253 11.7925 12.1651C11.9166 11.6394 12.4348 11.232 12.9763 11.232C12.9808 11.232 12.9854 11.232 12.9899 11.2321C14.3105 11.2485 15.6528 11.2455 16.9505 11.2425C17.9949 11.2399 19.0392 11.2402 20.0833 11.2428C21.1822 11.2456 22.3181 11.2487 23.4358 11.2383L23.7182 11.2357L23.3914 10.1365L23.2328 10.1364C21.0386 10.1356 18.8442 10.1354 16.6501 10.1358H12.9294C12.7582 10.1358 12.5744 10.1431 12.3907 10.196C11.5149 10.4485 10.9619 11.0033 10.7467 11.845C10.5682 12.5434 10.3919 13.2544 10.2215 13.942C10.1509 14.2263 10.0805 14.5107 10.0096 14.7951C9.99958 14.8352 9.98874 14.8787 9.97975 14.9091C9.94692 14.9109 9.89923 14.9114 9.85301 14.9118C9.66872 14.9137 9.47994 14.9071 9.28646 14.9327C8.97241 14.974 8.77913 15.2109 8.80551 15.5219C8.82974 15.8094 9.0457 16.0012 9.35565 16.0106C9.47896 16.0143 9.59387 16.0154 9.7037 16.014C9.68904 16.0716 9.67468 16.1293 9.66031 16.187C9.55058 16.6287 9.44681 17.046 9.18268 17.4093C8.85524 17.8596 8.51667 18.3253 8.39384 18.9205L8.38943 23.0788L9.47534 23.0607L9.47621 22.8523C9.481 21.6534 9.47934 20.4482 9.4768 19.3244C9.47631 19.0932 9.5369 18.8853 9.66208 18.6887C9.7216 18.5953 9.77988 18.501 9.83816 18.4067C9.81627 18.6693 9.995 18.9104 10.2551 18.9541L12.0108 19.2485L11.9918 19.2764L10.1858 19.3492C9.9091 19.3604 9.69247 19.5984 9.70302 19.8799C9.71367 20.1552 9.93431 20.3709 10.2053 20.3709C10.2052 20.3709 10.2054 20.3709 10.2053 20.3709L12.2811 20.2875C12.4374 20.2813 12.5841 20.1998 12.6737 20.0696Z" fill="#231F20"/>
</svg>
