<svg version="1.1" id="Layer_1" xmlns="http://www.w3.org/2000/svg" xmlns:xlink="http://www.w3.org/1999/xlink" x="0px" y="0px"
	 viewBox="0 0 36 36" style="enable-background:new 0 0 36 36;" xml:space="preserve" width="36" height="36">
<g>
	<path d="M16.16985,22.34375l-0.33057-0.14429l0.31349-0.17965c1.76081-1.00438,2.69045-2.62234,2.69045-4.67593
		c0-3.92717-2.89183-6.27317-7.73674-6.27317H0.5v23.88932h10.87432c5.49507,0,8.52275-2.39223,8.52275-6.73779
		C19.89707,25.43692,18.60809,23.40403,16.16985,22.34375z M4.77383,14.55976h5.72612c2.60468,0,3.92498,1.09304,3.92498,3.24895
		c0,2.15488-1.3203,3.24771-3.92498,3.24771H4.77383V14.55976z M11.19689,31.47176H4.77383v-6.92588h6.42307
		c3.53889,0,4.28305,1.88341,4.28305,3.46296S14.73579,31.47176,11.19689,31.47176z"/>
	<g>
		<path d="M24.77195,22.49809v-2.28851c4.65341,0,8.4411-3.78571,8.4411-8.44015c0-4.6542-3.78769-8.44089-8.4411-8.44089
			c-2.256,0-4.37408,0.87779-5.96853,2.47178L17.18411,4.1822c2.02725-2.02688,4.72215-3.14223,7.58784-3.14223
			C30.68781,1.03997,35.5,5.85336,35.5,11.76942C35.5,17.68569,30.68781,22.49809,24.77195,22.49809z"/>
		<path d="M24.77195,8.40738c1.85604,0,3.36204,1.50518,3.36204,3.36204c0,1.85769-1.506,3.36126-3.36204,3.36126
			c-0.92804,0-1.76965-0.37576-2.37778-0.9841l-1.61651,1.61655c1.0225,1.02188,2.43441,1.65429,3.99429,1.65429
			c3.11971,0,5.64817-2.5285,5.64817-5.64801c0-3.1193-2.52846-5.64838-5.64817-5.64838V8.40738z"/>
	</g>
</g>
</svg>
