<svg xmlns="http://www.w3.org/2000/svg" width="19.145" height="19.141" viewBox="0 0 19.145 19.141">
  <path id="União_1" data-name="União 1" d="M-11598.089,19.446l-5.3-5.3-5.3,5.3a2.5,2.5,0,0,1-3.538,0,2.5,2.5,0,0,1,0-3.535l5.3-5.3-5.3-5.3a2.5,2.5,0,0,1,0-3.535,2.5,2.5,0,0,1,3.538,0l5.3,5.3,5.3-5.3a2.5,2.5,0,0,1,3.535,0,2.5,2.5,0,0,1,0,3.535l-5.3,5.3,5.3,5.3a2.5,2.5,0,0,1,0,3.535,2.494,2.494,0,0,1-1.769.732A2.485,2.485,0,0,1-11598.089,19.446Z" transform="translate(11612.966 -1.037)" fill="#fff"/>
</svg>
