<svg xmlns="http://www.w3.org/2000/svg" xmlns:xlink="http://www.w3.org/1999/xlink" width="36" height="36" viewBox="0 0 36 36"><defs><clipPath id="a"><rect width="36" height="36" fill="none"/></clipPath></defs><g clip-path="url(#a)"><path d="M18,36A18,18,0,1,1,36,18,18,18,0,0,1,18,36M18,1.71A16.29,16.29,0,1,0,34.29,18,16.29,16.29,0,0,0,18,1.71Zm14.7,13-1.454-.3a67.371,67.371,0,0,0-26.5,0l-1.455.3.466-1.411a14.991,14.991,0,0,1,28.476,0ZM18,4.71A13.256,13.256,0,0,0,5.94,12.423a69.63,69.63,0,0,1,24.112,0A13.254,13.254,0,0,0,18,4.714ZM28.162,29.06l-.6-.856c-1.915-2.72-2.4-5.2-1.376-6.976.945-1.637,2.97-2.472,5.873-2.355l.936.031-.114.93A14.852,14.852,0,0,1,28.882,28.3Zm2.858-8.46c-1.672.1-2.847.612-3.353,1.49-.566.979-.308,2.479.7,4.2A13.109,13.109,0,0,0,31.02,20.6ZM7.838,29.06l-.72-.761a14.858,14.858,0,0,1-3.994-8.466L3.01,18.9l.936-.031c2.892-.117,4.928.72,5.873,2.355,1.027,1.778.54,4.257-1.377,6.976ZM4.98,20.6a13.13,13.13,0,0,0,2.656,5.694c1.005-1.725,1.26-3.226.7-4.2C7.826,21.213,6.652,20.7,4.98,20.6ZM18,33a14.944,14.944,0,0,1-8.151-2.418l-.81-.528.63-.743a10.35,10.35,0,0,1,16.68,0l.63.743-.815.528A14.936,14.936,0,0,1,18,33Zm-6.344-3.33a13.428,13.428,0,0,0,12.69,0,8.46,8.46,0,0,0-12.69,0"/></g></svg>