<svg xmlns="http://www.w3.org/2000/svg" width="22.989" height="36.011" viewBox="0 0 22.989 36.011"><g transform="translate(-408.21 -113.963)"><path d="M2.447-1.078H18.386a3.529,3.529,0,0,1,3.525,3.525V31.409a3.528,3.528,0,0,1-3.524,3.524H2.447a3.529,3.529,0,0,1-3.525-3.525V2.447A3.529,3.529,0,0,1,2.447-1.078Zm15.94,33.855a1.37,1.37,0,0,0,1.369-1.369V2.447a1.371,1.371,0,0,0-1.37-1.37H2.447a1.371,1.371,0,0,0-1.37,1.37v28.96a1.371,1.371,0,0,0,1.37,1.37Z" transform="translate(409.288 115.04)" fill="#231f20"/><path d="M20.834,1.083H0V-1.083H20.834Z" transform="translate(409.288 121.697)" fill="#231f20"/><path d="M20.834,1.083H0V-1.083H20.834Z" transform="translate(409.288 141.544)" fill="#231f20"/><path d="M4.446,1.033H0V-1.033H4.446Z" transform="translate(417.482 145.218)" fill="#231f20"/></g></svg>