<svg xmlns="http://www.w3.org/2000/svg" width="137.974" height="18" viewBox="0 0 137.974 18">
    <path d="M1417,9c0-4.97,8.3-9,18.529-9s18.529,4.029,18.529,9-8.3,9-18.529,9S1417,13.971,1417,9Zm19.43,1.217a30.387,30.387,0,0,0-4.359,1.317,22.071,22.071,0,0,0-5.96,3.028c-.074.061-.131.106-.167.142a.383.383,0,0,0-.152.286c0,.131.125.241.371.318.018.007.08.031.1.036a33.866,33.866,0,0,0,9.267,1.22c.027,0,.093,0,.184,0a3.237,3.237,0,0,0,1.236-.269,4.99,4.99,0,0,0,2.062-2.71c1.342-2.958-.143-3.494-1.413-3.494A6.168,6.168,0,0,0,1436.43,10.216ZM1448.69,4.3a.376.376,0,0,0-.312.21c-.041.07-.094.177-.148.285a45.623,45.623,0,0,1-6.48,10.626,1.47,1.47,0,0,0-.161.212.213.213,0,0,0,0,.279c.088.092.344.094.732.022,6.014-1.167,10.222-3.834,10.222-6.938,0-1.719-1.29-3.3-3.467-4.575a.707.707,0,0,0-.357-.121Zm-19.954-2.241c-6.016,1.165-10.224,3.833-10.224,6.937,0,1.719,1.294,3.3,3.468,4.576a.7.7,0,0,0,.387.12.371.371,0,0,0,.31-.211c.043-.07.1-.176.15-.283a45.623,45.623,0,0,1,6.481-10.629,1.787,1.787,0,0,0,.162-.21.224.224,0,0,0,0-.277.4.4,0,0,0-.283-.073A2.622,2.622,0,0,0,1428.735,2.061Zm6.66-.641a3.223,3.223,0,0,0-1.237.269A5,5,0,0,0,1432.1,4.4c-1.843,4.062,1.645,3.558,2.588,3.37a30.439,30.439,0,0,0,4.359-1.319A21.975,21.975,0,0,0,1445,3.421c.075-.059.131-.106.169-.141a.392.392,0,0,0,.153-.285c0-.134-.126-.24-.372-.318-.019-.007-.081-.03-.1-.036a33.847,33.847,0,0,0-9.271-1.221h-.183Zm116.338,14.041V2.542h3.24V15.461Zm-6.393,0v-4h-5.889v4h-3.234V5.183a2.534,2.534,0,0,1,.75-1.929A2.831,2.831,0,0,1,1539,2.541h9.577V15.461ZM1539.452,6V8.666h5.889V5.339h-5.2A.671.671,0,0,0,1539.452,6Zm-18.462,9.465V2.541h9.581a2.851,2.851,0,0,1,2.032.711,2.544,2.544,0,0,1,.75,1.931v7.639a2.542,2.542,0,0,1-.75,1.928,2.848,2.848,0,0,1-2.032.711Zm3.236-2.8h5.2a.669.669,0,0,0,.693-.668V6.007a.663.663,0,0,0-.713-.668h-5.176Zm-9.479,2.8V5.986a.657.657,0,0,0-.687-.647h-5.2V15.461h-3.241V2.541h9.582a2.854,2.854,0,0,1,2.037.713,2.552,2.552,0,0,1,.747,1.929V15.461Zm-24.5,0V2.541h3.241V12.662h5.2a.657.657,0,0,0,.69-.651V2.541h3.236v10.28a2.552,2.552,0,0,1-.747,1.928,2.861,2.861,0,0,1-2.038.711Zm-10.138,0V10.986l-5.6-8.444h3.825l3.389,5.116,3.392-5.116h3.828l-5.6,8.444v4.475Zm-10.116,0V10.266h-5.884v5.195h-3.243V2.541h3.243V7.463h5.884V2.541h3.241V15.461Z" transform="translate(-1417)" fill="#fff" style="fill: rgb(0, 44, 95);"></path>
</svg>
