<svg xmlns="http://www.w3.org/2000/svg" xmlns:xlink="http://www.w3.org/1999/xlink" width="19" height="20" viewBox="0 0 19 20"><defs><clipPath id="a"><rect width="19" height="20" fill="none"/></clipPath></defs><g clip-path="url(#a)"><path d="M19,14.337V5.663A5.613,5.613,0,0,0,13.473,0H5.528A5.613,5.613,0,0,0,0,5.663v8.674A5.614,5.614,0,0,0,5.528,20h7.945A5.613,5.613,0,0,0,19,14.337M5.528,18.5a3.988,3.988,0,0,1-2.87-1.225,4.185,4.185,0,0,1-1.2-2.941V5.663a4.187,4.187,0,0,1,1.2-2.942A3.988,3.988,0,0,1,5.528,1.5h7.945a3.99,3.99,0,0,1,2.871,1.225,4.191,4.191,0,0,1,1.2,2.942v8.674a4.189,4.189,0,0,1-1.2,2.941A3.99,3.99,0,0,1,13.473,18.5Zm4-13.941A5.3,5.3,0,0,0,4.3,9.923a5.3,5.3,0,0,0,5.232,5.36,5.3,5.3,0,0,0,5.233-5.36A5.3,5.3,0,0,0,9.53,4.562m3.4,5.365A3.427,3.427,0,1,1,9.5,6.417a3.469,3.469,0,0,1,3.426,3.51m1.916-6.717a1.269,1.269,0,1,0,1.239,1.27,1.254,1.254,0,0,0-1.239-1.27" fill="#fff"/></g></svg>