<svg xmlns="http://www.w3.org/2000/svg" xmlns:xlink="http://www.w3.org/1999/xlink" width="20" height="19" viewBox="0 0 20 19"><defs><clipPath id="a"><rect width="20" height="19" transform="translate(0 0)" fill="none"/></clipPath></defs><g transform="translate(0 0)" clip-path="url(#a)"><path d="M11.2,8.039V8l-.028.042Z" fill="#fff"/><path d="M4.541,19H.255V6.18H4.541ZM2.4,4.431H2.369A2.223,2.223,0,1,1,2.426,0,2.223,2.223,0,1,1,2.4,4.431M20,19H15.714V12.142c0-1.723-.622-2.9-2.174-2.9a2.345,2.345,0,0,0-2.2,1.559,2.905,2.905,0,0,0-.141,1.04V19H6.913s.057-11.617,0-12.82H11.2V8A4.259,4.259,0,0,1,15.064,5.88C17.885,5.88,20,7.712,20,11.649Z" fill="#fff"/></g></svg>