<?xml version="1.0" encoding="utf-8"?>
<!-- Generator: Adobe Illustrator 27.7.0, SVG Export Plug-In . SVG Version: 6.00 Build 0)  -->
<svg version="1.1" id="Layer_1" xmlns="http://www.w3.org/2000/svg" xmlns:xlink="http://www.w3.org/1999/xlink" x="0px" y="0px"
	 viewBox="0 0 20 20" style="enable-background:new 0 0 20 20;" xml:space="preserve" width="36" height="36">
<style type="text/css">
	.st0{fill:#000000;}
</style>
<g>
	<path class="st0" d="M6.5262,0C6.84294,0.13347,6.96468,0.38176,6.9611,0.71411C6.95585,1.20194,6.96625,1.69,6.95649,2.17769
		c-0.00357,0.17865,0.0533,0.23358,0.23378,0.2329c1.30751-0.00487,2.61509-0.00436,3.92258,0.00426
		c0.86351,0.00569,1.53108,0.3802,1.96476,1.12917c1.85435,3.20249,3.70469,6.40731,5.55116,9.61434
		c0.64428,1.11901,0.29529,2.39154-0.83027,3.04536c-1.53527,0.89181-3.07491,1.77608-4.61311,2.66283
		c-0.28729,0.16562-0.57272,0.3351-0.86593,0.48968c-0.41216,0.21729-0.8567,0.25395-1.30989,0.18764
		c-0.12028-0.0176-0.2119,0.00322-0.30869,0.07061c-0.37945,0.26418-0.79978,0.38668-1.26522,0.38551
		c-2.06213-0.00519-4.12427-0.00042-6.18641-0.00297c-1.23935-0.00154-2.19426-0.94612-2.19563-2.18385
		C1.04949,14.08571,1.04725,10.35824,1.05605,6.6308c0.00191-0.80873,0.37211-1.44324,1.0666-1.85839
		c1.13316-0.67737,2.27693-1.33709,3.42028-1.99722C5.68569,2.69277,5.74161,2.59965,5.73903,2.4355
		c-0.0088-0.55931,0.00721-1.11911-0.00726-1.67818C5.72299,0.41796,5.82855,0.16048,6.13588,0C6.26599,0,6.39609,0,6.5262,0z
		 M2.27606,12.23772c0,1.8341,0.00053,3.6682-0.00079,5.5023c-0.00014,0.1907,0.01215,0.37573,0.10839,0.54746
		c0.20269,0.36168,0.52393,0.50986,0.92279,0.51118c0.839,0.00279,1.67802,0.00099,2.51703,0.00097
		c1.18371-0.00002,2.36743,0.00309,3.55112-0.00149c0.63048-0.00244,1.04348-0.39541,1.04377-0.99036
		c0.00176-3.70722,0.00067-7.41444,0.00124-11.12167c0.00006-0.39035-0.15767-0.69137-0.49678-0.88978
		C8.98557,5.24797,8.04646,4.70273,7.11045,4.15223c-0.13069-0.07687-0.15282-0.0315-0.15167,0.09377
		c0.00318,0.34468,0.00516,0.68947-0.00051,1.03409C6.9517,5.67866,6.70247,5.94425,6.3445,5.94559
		C5.9851,5.94693,5.73957,5.68074,5.73638,5.28088C5.73368,4.9427,5.72927,4.60431,5.73825,4.26635
		c0.00482-0.18141-0.04867-0.17881-0.1845-0.09884C4.65722,4.69534,3.76124,5.22436,2.85699,5.73878
		c-0.40342,0.2295-0.58787,0.54877-0.58521,1.01617C2.2822,8.58249,2.27604,10.41012,2.27606,12.23772z M8.70307,3.65449
		c0.03981,0.06756,0.11169,0.08775,0.17049,0.12237c0.5267,0.31004,1.05204,0.62254,1.58337,0.92449
		c0.80547,0.45775,1.18618,1.15486,1.18636,2.07051c0.00071,3.64183,0.00039,7.28367-0.00022,10.9255
		c-0.00002,0.09735-0.0049,0.19491-0.01244,0.29199c-0.00839,0.10796-0.07653,0.26615-0.00501,0.31111
		c0.09099,0.05719,0.21133-0.05783,0.31039-0.11491c1.72944-0.9966,3.45838-1.99409,5.18613-2.9936
		c0.63916-0.36976,0.77221-0.88113,0.40073-1.52501c-0.76029-1.31783-1.52206-2.6348-2.28293-3.9523
		c-1.06652-1.84675-2.13375-3.69309-3.19831-5.54097c-0.20709-0.35946-0.50635-0.53962-0.92502-0.53733
		c-0.74784,0.00408-1.49573-0.0029-2.2436-0.00341C8.81788,3.6329,8.75811,3.614,8.70307,3.65449z"/>
	<path class="st0" d="M6.34724,14.11633c0.77976,0,1.55954-0.00277,2.33927,0.00133c0.32288,0.0017,0.56999,0.23179,0.60679,0.54712
		c0.03058,0.26204-0.16255,0.54616-0.43157,0.62281c-0.07345,0.02093-0.15364,0.02523-0.23075,0.0253
		c-1.52703,0.00139-3.05406,0.00174-4.58109,0.00052c-0.38385-0.00031-0.65324-0.24923-0.65426-0.59712
		c-0.00102-0.34768,0.26899-0.59897,0.65132-0.59982C4.8137,14.11477,5.58047,14.11597,6.34724,14.11633z"/>
	<path class="st0" d="M6.32967,16.45827c0.78626,0,1.57253-0.00286,2.35877,0.00138
		c0.32216,0.00174,0.56969,0.23384,0.60518,0.54894c0.02954,0.26224-0.1646,0.54586-0.43369,0.62158
		c-0.07354,0.02069-0.15373,0.02459-0.23088,0.02466c-1.52703,0.00134-3.05406,0.00173-4.5811,0.00046
		c-0.38279-0.00032-0.6526-0.25125-0.65234-0.59901c0.00026-0.34771,0.26996-0.59709,0.65324-0.59792
		C4.80913,16.4567,5.5694,16.45786,6.32967,16.45827z"/>
	<path class="st0" d="M5.68128,12.97128c-0.42754,0.00458-0.7133-0.38974-0.56771-0.80994
		c0.23174-0.66884,0.47964-1.33208,0.72146-1.99742C6.03027,9.62677,6.22791,9.0905,6.42192,8.55291
		c0.08912-0.24695,0.24948-0.41129,0.5166-0.44254c0.45872-0.05366,0.79053,0.36576,0.63407,0.81536
		C7.3314,9.61882,7.07484,10.30657,6.8242,10.99637c-0.18632,0.51276-0.37217,1.0257-0.561,1.53753
		C6.16002,12.81358,5.94986,12.9684,5.68128,12.97128z"/>
	<path class="st0" d="M3.54755,9.72159c0.00338-0.3264,0.27107-0.59394,0.59546-0.59512
		c0.33437-0.00122,0.60095,0.26889,0.60042,0.60839c-0.00053,0.33716-0.27325,0.61172-0.60358,0.60765
		C3.81105,10.33846,3.54406,10.05857,3.54755,9.72159z"/>
	<path class="st0" d="M9.14895,11.33152c0.0036,0.31629-0.27085,0.60339-0.58701,0.61407
		c-0.32687,0.01103-0.63317-0.28813-0.6289-0.61425c0.00414-0.31622,0.28378-0.59811,0.59864-0.60346
		C8.85563,10.72237,9.14524,11.00559,9.14895,11.33152z"/>
</g>
</svg>
