<svg xmlns="http://www.w3.org/2000/svg" xmlns:xlink="http://www.w3.org/1999/xlink" width="36" height="36" viewBox="0 0 36 36"><defs><clipPath id="a"><rect width="36" height="36" transform="translate(0 0)" fill="none"/></clipPath></defs><g transform="translate(0 0)" clip-path="url(#a)"><path d="M22.961,28.392,12.975,18.4a5.435,5.435,0,0,1-6.353-7.488l0-.007a.951.951,0,0,1,.861-.551.941.941,0,0,1,.67.277L10.622,13.1l.9-.9L9.037,9.722a.949.949,0,0,1,.277-1.508L9.333,8.2a5.434,5.434,0,0,1,7.489,6.353l9.987,9.987ZM13.447,16.3l9.515,9.516,1.271-1.271L14.718,15.03l.217-.555a3.611,3.611,0,0,0-3.363-4.931l-.135,0,1.5,1.5a1.641,1.641,0,0,1,0,2.317L11.78,14.521a1.639,1.639,0,0,1-2.315,0l-1.5-1.5a3.628,3.628,0,0,0,1.053,2.686,3.614,3.614,0,0,0,3.873.809Z" fill="#231f20"/><path d="M32.093,19.407,27.26,15.819l1.162-1.566,3.268,2.426,2.426-3.268,1.566,1.162Z" fill="#231f20"/><path d="M16.364,34.363A16.364,16.364,0,0,1,4.793,6.427,16.363,16.363,0,0,1,32.727,18h-1.95a14.414,14.414,0,1,0-4.222,10.192l.378-.378a14.376,14.376,0,0,0,2.75-4.294l1.8.747a16.316,16.316,0,0,1-3.543,5.311l-.689.69-.028-.028A16.243,16.243,0,0,1,16.364,34.363Z" fill="#231f20"/></g></svg>