<svg xmlns="http://www.w3.org/2000/svg" xmlns:xlink="http://www.w3.org/1999/xlink" width="18" height="20" viewBox="0 0 18 20"><defs><clipPath id="a"><rect width="18" height="20" fill="none"/></clipPath></defs><g clip-path="url(#a)"><path d="M17.4,4.393A3.868,3.868,0,0,1,13.479.586a.6.6,0,0,0-.6-.586H9.646a.6.6,0,0,0-.6.586V13.452a2.3,2.3,0,1,1-2.3-2.238.6.6,0,0,0,.6-.586V7.489a.6.6,0,0,0-.6-.586A6.653,6.653,0,0,0,0,13.452,6.653,6.653,0,0,0,6.739,20a6.653,6.653,0,0,0,6.739-6.548v-5.7A8.489,8.489,0,0,0,17.4,8.7a.6.6,0,0,0,.6-.586V4.979a.6.6,0,0,0-.6-.586" fill="#fff"/></g></svg>