<svg xmlns="http://www.w3.org/2000/svg" xmlns:xlink="http://www.w3.org/1999/xlink" width="34" height="34" viewBox="0 0 34 34"><defs><clipPath id="a"><rect width="34" height="34" transform="translate(0 0)" fill="none"/></clipPath></defs><g transform="translate(0 0)" clip-path="url(#a)"><path d="M8.68,7.246,5.7,4.262,4.263,5.695,7.246,8.678A12.944,12.944,0,0,1,8.68,7.246" fill="#231f20"/><path d="M4.16,17.015c0-.347.025-.688.051-1.027H0v2.026H4.211c-.025-.33-.051-.662-.051-1" fill="#231f20"/><path d="M26.753,8.68,29.737,5.7,28.3,4.263,25.319,7.247A13.034,13.034,0,0,1,26.753,8.68" fill="#231f20"/><path d="M17,4.176c.342,0,.678.025,1.013.051V0H15.987V4.228c.335-.026.671-.051,1.012-.051" fill="#231f20"/><path d="M29.785,15.987c.027.34.051.681.051,1.027s-.024.668-.05,1H34V15.987Z" fill="#231f20"/><path d="M25.334,26.768l2.97,2.97L29.737,28.3l-2.971-2.97a12.864,12.864,0,0,1-1.432,1.434" fill="#231f20"/><path d="M17,29.853c-.342,0-.677-.025-1.012-.051V34h2.026V29.8c-.335.026-.671.051-1.013.051" fill="#231f20"/><path d="M7.231,25.335,4.262,28.3l1.433,1.433,2.969-2.968a12.872,12.872,0,0,1-1.433-1.434" fill="#231f20"/><path d="M10.015,19.711c1.057-1.94,4.105-2.847,4.105-4.319a1.135,1.135,0,0,0-1.284-1.209,1.385,1.385,0,0,0-1.374,1.007l-1.448-.831a2.928,2.928,0,0,1,2.908-1.939,2.82,2.82,0,0,1,3.111,2.846c0,2.456-2.683,3.249-3.476,4.206H16.2v1.7H10.015Z" fill="#231f20"/><path d="M16.849,17.759l3.7-5.151H23.07v4.836h1.4v1.7h-1.4v2.028h-1.9V19.144H16.849Zm4.319-.315V14.623L19.2,17.444Z" fill="#231f20"/></g></svg>