<svg xmlns="http://www.w3.org/2000/svg" xmlns:xlink="http://www.w3.org/1999/xlink" width="31.318" height="31.317" viewBox="0 0 31.318 31.317"><defs><clipPath id="a"><rect width="31.318" height="31.317" fill="none"/></clipPath></defs><g clip-path="url(#a)"><path d="M15.66,1.7a13.963,13.963,0,0,1,9.873,23.836A13.963,13.963,0,0,1,5.787,5.786,13.868,13.868,0,0,1,15.66,1.7m0-1.7A15.659,15.659,0,1,0,31.319,15.659,15.659,15.659,0,0,0,15.66,0" transform="translate(0 -0.002)" fill="#231f20"/><path d="M17.434,1.7c1.842,0,3.642,1.332,5.069,3.752a20.421,20.421,0,0,1,2.47,10.211A20.426,20.426,0,0,1,22.5,25.87c-1.427,2.419-3.227,3.752-5.069,3.752s-3.642-1.333-5.069-3.752A20.426,20.426,0,0,1,9.9,15.659a20.421,20.421,0,0,1,2.47-10.211C13.792,3.028,15.592,1.7,17.434,1.7m0-1.7C12.334,0,8.2,7.011,8.2,15.659s4.135,15.66,9.235,15.66,9.235-7.011,9.235-15.66S22.534,0,17.434,0" transform="translate(-1.775 -0.002)" fill="#231f20"/><path d="M1.082,28.471H-1.082V0H1.082Z" transform="translate(15.66 1.422)" fill="#231f20"/><path d="M28.506,1.082H0V-1.082H28.506Z" transform="translate(1.406 10.584)" fill="#231f20"/><path d="M28.506,1.082H0V-1.082H28.506Z" transform="translate(1.406 20.731)" fill="#231f20"/></g></svg>