<svg xmlns="http://www.w3.org/2000/svg" width="28" height="29" viewBox="0 0 28 29">
    <path d="M3907.961,325.795a14.807,14.807,0,0,1-1.925-7.329,13.99,13.99,0,1,1,13.982,14.466,13.61,13.61,0,0,1-6.836-1.844L3906,333Zm6.017,2.931a11.3,11.3,0,0,0,6.041,1.751,12.018,12.018,0,1,0-11.611-12.012,12.28,12.28,0,0,0,1.833,6.481l.288.465-1.129,4.149,4.149-1.1Zm8.466-3.526a14.783,14.783,0,0,1-7.936-5.968,6.692,6.692,0,0,1-1.464-5.119,4.3,4.3,0,0,1,1.359-2.155,1.071,1.071,0,0,1,.78-.275l.907.051a.47.47,0,0,1,.407.294l1.321,3.2a.5.5,0,0,1-.076.509l-1.15,1.376a.371.371,0,0,0-.044.4,9.5,9.5,0,0,0,5.1,4.516.337.337,0,0,0,.387-.119l1.2-1.614a.46.46,0,0,1,.569-.144l3.066,1.462a.49.49,0,0,1,.263.543l-.145.7a3.032,3.032,0,0,1-1.273,1.924,3.585,3.585,0,0,1-2.013.61A4.488,4.488,0,0,1,3922.444,325.2Z" transform="translate(-3906 -304)" fill="#fff"></path>
</svg>
