<svg xmlns="http://www.w3.org/2000/svg" xmlns:xlink="http://www.w3.org/1999/xlink" width="25" height="17" viewBox="0 0 25 17"><defs><clipPath id="a"><rect width="25" height="17" transform="translate(0 0)" fill="none"/></clipPath></defs><g transform="translate(0 0)" clip-path="url(#a)"><path d="M24.619,3.093A3.244,3.244,0,0,0,21.6.306C20.656.173,16.11,0,12.5,0S4.342.173,3.4.306A3.24,3.24,0,0,0,.382,3.093,44.056,44.056,0,0,0,0,8.359v.282a44.058,44.058,0,0,0,.383,5.268A3.241,3.241,0,0,0,3.4,16.695c.948.134,5.5.305,9.113.305h-.016c3.611,0,8.163-.172,9.112-.305a3.245,3.245,0,0,0,3.015-2.786A44.529,44.529,0,0,0,25,8.641V8.359a44.527,44.527,0,0,0-.381-5.267M9.9,11.867V5.056l6.64,3.325Z" fill="#fff"/></g></svg>